<svg xmlns="http://www.w3.org/2000/svg" xml:space="preserve" x="0px" y="0px" style="enable-background:new 0 0 923.0769043 303.8581238" viewBox="0 0 923.0769043 303.8581238"><path d="M395.022 159.906c0 43.716-34.199 75.93-76.17 75.93s-76.17-32.214-76.17-75.93c0-44.025 34.2-75.93 76.17-75.93s76.17 31.905 76.17 75.93zm-33.343 0c0-27.319-19.821-46.01-42.827-46.01s-42.826 18.691-42.826 46.01c0 27.044 19.821 46.01 42.826 46.01s42.827-19 42.827-46.01z" style="fill:#ea4335"/><path d="M559.344 159.906c0 43.716-34.2 75.93-76.17 75.93s-76.17-32.214-76.17-75.93c0-43.99 34.2-75.93 76.17-75.93s76.17 31.905 76.17 75.93zm-33.344 0c0-27.319-19.82-46.01-42.826-46.01s-42.826 18.691-42.826 46.01c0 27.044 19.821 46.01 42.826 46.01s42.826-19 42.826-46.01z" style="fill:#fbbc05"/><path d="M716.819 88.563V224.88c0 56.075-33.07 78.977-72.165 78.977-36.8 0-58.95-24.614-67.303-44.743l29.03-12.085c5.17 12.359 17.836 26.942 38.24 26.942 25.024 0 40.532-15.44 40.532-44.504v-10.92h-1.164c-7.463 9.209-21.841 17.254-39.985 17.254-37.965 0-72.747-33.07-72.747-75.623 0-42.86 34.782-76.204 72.747-76.204 18.11 0 32.488 8.045 39.985 16.98h1.164V88.597h31.666v-.034zm-29.304 71.616c0-26.736-17.836-46.284-40.533-46.284-23.005 0-42.278 19.548-42.278 46.284 0 26.463 19.273 45.737 42.278 45.737 22.697 0 40.533-19.274 40.533-45.737z" style="fill:#4285f4"/><path d="M769.025 8.661V231.18h-32.522V8.661h32.522z" style="fill:#34a853"/><path d="m895.758 184.896 25.881 17.254c-8.353 12.358-28.482 33.652-63.264 33.652-43.134 0-75.348-33.344-75.348-75.93 0-45.155 32.488-75.931 71.617-75.931 39.403 0 58.676 31.358 64.975 48.304l3.458 8.627-101.503 42.039c7.771 15.234 19.856 23.005 36.801 23.005 16.98 0 28.757-8.353 37.384-21.02zm-79.661-27.318 67.85-28.175c-3.73-9.482-14.96-16.09-28.174-16.09-16.945 0-40.532 14.96-39.676 44.265z" style="fill:#ea4335"/><path d="M119.578 140.153v-32.214h108.555c1.061 5.614 1.61 12.255 1.61 19.445 0 24.168-6.608 54.054-27.901 75.348-20.712 21.567-47.174 33.07-82.23 33.07C54.637 235.802 0 182.876 0 117.9S54.637 0 119.612 0c35.946 0 61.553 14.104 80.792 32.488l-22.731 22.73c-13.796-12.94-32.488-23.004-58.095-23.004-47.448 0-84.557 38.239-84.557 85.687s37.11 85.687 84.557 85.687c30.776 0 48.304-12.359 59.533-23.587 9.106-9.106 15.097-22.115 17.459-39.883l-76.992.035z" style="fill:#4285f4"/></svg>